<mxfile host="app.diagrams.net" modified="2024-03-14T03:01:41.004Z" agent="Mozilla/5.0 (Windows NT 10.0; Win64; x64) AppleWebKit/537.36 (KHTML, like Gecko) Chrome/122.0.0.0 Safari/537.36" version="24.0.6" etag="6R8wWzZBDeJzbucfYiCx" type="github">
  <diagram name="第 1 页" id="x_nWuEV3HtXvcamoYrlm">
    <mxGraphModel>
      <root>
        <mxCell id="0" />
        <mxCell id="1" parent="0" />
      </root>
    </mxGraphModel>
  </diagram>
</mxfile>
